<svg xmlns="http://www.w3.org/2000/svg" xmlns:xlink="http://www.w3.org/1999/xlink" version="1.1" x="0px" y="0px" viewBox="0 0 32 40" enable-background="new 0 0 32 32" xml:space="preserve"><g><path d="M16,29.999c-7.72,0-14-6.28-14-14s6.28-14,14-14s14,6.28,14,14S23.72,29.999,16,29.999z M16,3.999c-6.617,0-12,5.383-12,12   s5.383,12,12,12s12-5.383,12-12S22.617,3.999,16,3.999z M16.707,23.707l7-7c0.391-0.391,0.391-1.023,0-1.414s-1.023-0.391-1.414,0   L16,21.586l-6.293-6.293c-0.391-0.391-1.023-0.391-1.414,0s-0.391,1.023,0,1.414l7,7C15.488,23.902,15.744,24,16,24   S16.512,23.902,16.707,23.707z M16.707,16.707l7-7c0.391-0.391,0.391-1.023,0-1.414s-1.023-0.391-1.414,0L16,14.586L9.707,8.293   c-0.391-0.391-1.023-0.391-1.414,0s-0.391,1.023,0,1.414l7,7C15.488,16.902,15.744,17,16,17S16.512,16.902,16.707,16.707z"/></g><text x="0" y="47" fill="#000000" font-size="5px" font-weight="bold" font-family="'Helvetica Neue', Helvetica, Arial-Unicode, Arial, Sans-serif">Created by Agung Cahyo s</text><text x="0" y="52" fill="#000000" font-size="5px" font-weight="bold" font-family="'Helvetica Neue', Helvetica, Arial-Unicode, Arial, Sans-serif">from the Noun Project</text></svg>